G04 Layer: TopSilkscreenLayer*
G04 EasyEDA v6.5.44, 2025-04-28 19:25:54*
G04 Gerber Generator version 0.2*
G04 Scale: 100 percent, Rotated: No, Reflected: No *
G04 Dimensions in millimeters *
G04 leading zeros omitted , absolute positions ,4 integer and 5 decimal *
%FSLAX45Y45*%
%MOMM*%

%ADD10C,0.1524*%
%ADD11C,0.2540*%
%ADD12C,0.2000*%
%ADD13C,0.2500*%
%ADD14C,0.6000*%

%LPD*%
D10*
X1206500Y5614415D02*
G01*
X1206500Y5505450D01*
X1206500Y5614415D02*
G01*
X1253236Y5614415D01*
X1268729Y5609336D01*
X1274063Y5604002D01*
X1279144Y5593587D01*
X1279144Y5583173D01*
X1274063Y5572760D01*
X1268729Y5567679D01*
X1253236Y5562600D01*
X1206500Y5562600D01*
X1242821Y5562600D02*
G01*
X1279144Y5505450D01*
X1318768Y5588507D02*
G01*
X1318768Y5593587D01*
X1323847Y5604002D01*
X1329181Y5609336D01*
X1339595Y5614415D01*
X1360170Y5614415D01*
X1370584Y5609336D01*
X1375918Y5604002D01*
X1380997Y5593587D01*
X1380997Y5583173D01*
X1375918Y5572760D01*
X1365504Y5557265D01*
X1313434Y5505450D01*
X1386331Y5505450D01*
X3631651Y6691121D02*
G01*
X3621237Y6701536D01*
X3605743Y6706615D01*
X3584915Y6706615D01*
X3569421Y6701536D01*
X3559007Y6691121D01*
X3559007Y6680708D01*
X3564087Y6670294D01*
X3569421Y6664960D01*
X3579835Y6659879D01*
X3611077Y6649465D01*
X3621237Y6644386D01*
X3626571Y6639052D01*
X3631651Y6628637D01*
X3631651Y6613144D01*
X3621237Y6602729D01*
X3605743Y6597650D01*
X3584915Y6597650D01*
X3569421Y6602729D01*
X3559007Y6613144D01*
X3665941Y6706615D02*
G01*
X3692103Y6597650D01*
X3718011Y6706615D02*
G01*
X3692103Y6597650D01*
X3718011Y6706615D02*
G01*
X3743919Y6597650D01*
X3769827Y6706615D02*
G01*
X3743919Y6597650D01*
X3804117Y6685787D02*
G01*
X3814531Y6691121D01*
X3830279Y6706615D01*
X3830279Y6597650D01*
X1458495Y6706615D02*
G01*
X1458495Y6628637D01*
X1463575Y6613144D01*
X1473989Y6602729D01*
X1489737Y6597650D01*
X1500151Y6597650D01*
X1515645Y6602729D01*
X1526059Y6613144D01*
X1531139Y6628637D01*
X1531139Y6706615D01*
X1565429Y6685787D02*
G01*
X1575843Y6691121D01*
X1591591Y6706615D01*
X1591591Y6597650D01*
X2620812Y6706615D02*
G01*
X2620812Y6628637D01*
X2625892Y6613144D01*
X2636306Y6602729D01*
X2652054Y6597650D01*
X2662468Y6597650D01*
X2677962Y6602729D01*
X2688376Y6613144D01*
X2693456Y6628637D01*
X2693456Y6706615D01*
X2733080Y6680708D02*
G01*
X2733080Y6685787D01*
X2738160Y6696202D01*
X2743494Y6701536D01*
X2753908Y6706615D01*
X2774482Y6706615D01*
X2784896Y6701536D01*
X2790230Y6696202D01*
X2795310Y6685787D01*
X2795310Y6675373D01*
X2790230Y6664960D01*
X2779816Y6649465D01*
X2727746Y6597650D01*
X2800644Y6597650D01*
D11*
X1206500Y5346700D02*
G01*
X1263650Y5346700D01*
X3466531Y6474597D02*
G01*
X3656523Y6474597D01*
X3746695Y6384444D01*
X3746695Y6204585D01*
X3646614Y6104516D01*
X3476688Y6104516D01*
X3386510Y6194706D01*
X3386510Y6394577D01*
X3466531Y6474597D01*
X3694115Y6549544D02*
G01*
X3783622Y6460030D01*
X3821623Y6411363D02*
G01*
X3821623Y6177666D01*
X3783622Y6129017D02*
G01*
X3694115Y6039485D01*
X3311588Y6411363D02*
G01*
X3311588Y6177666D01*
X3349589Y6129017D02*
G01*
X3439099Y6039485D01*
X3439099Y6549544D02*
G01*
X3349589Y6460030D01*
X3439099Y6039485D02*
G01*
X3694115Y6039485D01*
X3439099Y6549544D02*
G01*
X3694115Y6549544D01*
D12*
X1002596Y6147300D02*
G01*
X1002565Y6146800D01*
X1002565Y6348221D01*
X1992657Y6348221D01*
X1992657Y5818378D01*
X1002565Y5818378D01*
X1002565Y6019800D01*
X1002596Y6019299D01*
D11*
X2781012Y6441099D02*
G01*
X2781012Y6096099D01*
X2716014Y6221100D02*
G01*
X2851012Y6221100D01*
X2721013Y6321099D02*
G01*
X2781012Y6221100D01*
X2846014Y6321099D01*
X2721013Y6321099D02*
G01*
X2846014Y6321099D01*
X2364115Y6410144D02*
G01*
X2468120Y6410144D01*
X2364115Y6110152D02*
G01*
X2468120Y6110152D01*
X2468013Y5981103D02*
G01*
X3052013Y5981103D01*
X2468013Y6541099D02*
G01*
X3052013Y6541099D01*
X3052013Y6541099D02*
G01*
X3052013Y5981103D01*
X2468013Y6541099D02*
G01*
X2468013Y5981103D01*
G75*
G01*
X1101402Y5466700D02*
G03*
X1101402Y5226700I0J-120000D01*
D12*
G75*
G01*
X1002596Y6019300D02*
G03*
X1002596Y6146300I0J63500D01*
D13*
G75*
G01*
X973102Y5702300D02*
G03*
X973102Y5702554I12499J127D01*
D14*
G75*
G01*
X1051588Y5918200D02*
G03*
X1051588Y5918708I29999J254D01*
D11*
G75*
G01*
X2364014Y6410185D02*
G03*
X2364014Y6110186I0J-149999D01*
G75*
G01
X3693983Y6294552D02*
G03X3693983Y6294552I-127508J0D01*
M02*
